<svg xmlns="http://www.w3.org/2000/svg" viewBox="0 0 516 72">
  <path fill="#FFFFFF" fill-opacity="0.9" d="M7.2,42.9c0-10.8,8.1-18.9,19.4-18.9c8.1,0,13.2,3.8,16.2,8.5l-6.6,3.8c-1.9-3-5.5-5.1-9.6-5.1c-6.8,0-11.9,5.1-11.9,11.7
    s5.1,11.7,11.9,11.7c4.2,0,7.7-2.1,9.6-5.1l6.6,3.8c-3,4.7-8.1,8.5-16.2,8.5C15.3,61.9,7.2,53.8,7.2,42.9z"/>
  <path fill="#FFFFFF" fill-opacity="0.9" d="M50.4,24.8h7.7v28.9h17.9v7H50.4V24.8z"/>
  <path fill="#FFFFFF" fill-opacity="0.9" d="M95.3,24h7.7l18.1,36.6h-8.5l-3.4-7.2H90.2l-3.4,7.2h-8.5L95.3,24z M105.3,46.7l-5.3-11.1l-5.3,11.1H105.3z"/>
  <path fill="#FFFFFF" fill-opacity="0.9" d="M148.8,53.3h-0.2L134.9,24h-0.2v36.6h-7.5V24h11.1l12.5,26.6h0.2L163.4,24h11.1v36.6H167V24h-0.2L152.8,53.3
    H148.8z"/>
  <path fill="#FFFFFF" fill-opacity="0.9" d="M183.7,24.8h7.7v13.6h16v-13.6h7.7v35.9h-7.7V45.4h-16v15.3h-7.7V24.8z"/>
  <path fill="#FFFFFF" fill-opacity="0.9" d="M226.3,24.8h27v7h-19.4v7.5h17v7h-17v7.5h19.4v7h-27V24.8z"/>
  <path fill="#FFFFFF" fill-opacity="0.9" d="M261.6,24.8h15.5c12.8,0,22.1,8.5,22.1,18s-9.4,18-22.1,18h-15.5V24.8z M276.9,53.8c8.7,0,14.5-5.3,14.5-11
    s-5.8-11-14.5-11h-7.7v22.1H276.9z"/>
  <path fill="#FFFFFF" fill-opacity="0.9" d="M325.2,43.5l-16-18.7h9.6l10.8,13l10.8-13h9.6l-16,18.7v17.2h-7.7V43.5z"/>
  <path fill="#FFFFFF" fill-opacity="0.9" d="M387.9,43c0,10.8-8.1,18.9-19.4,18.9s-19.4-8.1-19.4-18.9s8.1-18.9,19.4-18.9S387.9,32.2,387.9,43z M380.3,43
    c0-6.6-5.1-11.7-11.9-11.7s-11.9,5.1-11.9,11.7s5.1,11.7,11.9,11.7S380.3,49.6,380.3,43z"/>
  <path fill="#FFFFFF" fill-opacity="0.9" d="M396.2,24.8h7.7v18.5l17-18.5h9.4L412.8,42l19.1,18.7h-10L406.6,46l-2.6,2.8v11.9h-7.7V24.8z"/>
  <path fill="#FFFFFF" fill-opacity="0.9" d="M9.1,14.5v54.9 M507.7,16v54.9 M9.9,15.8L507,15.8 M9.9,68.5L507,68.5" stroke="#FFFFFF" stroke-opacity="0.3" stroke-width="1.5" fill="none"/>
</svg> 